<svg width="510" height="151" viewBox="0 0 510 151" fill="none" xmlns="http://www.w3.org/2000/svg">
<path d="M145.784 32.2893C145.664 32.8825 145.368 33.4256 144.934 33.8474L64.6986 111.849C62.7675 113.726 64.0966 117 66.7897 117H128.127C130.025 117 131.445 118.74 131.066 120.599L125.889 145.999C125.605 147.396 124.376 148.4 122.95 148.4H3.66521C1.77017 148.4 0.349849 146.665 0.724377 144.807L4.81641 124.511C4.936 123.917 5.23219 123.374 5.66607 122.952L85.9014 44.951C87.8325 43.0737 86.5034 39.7999 83.8103 39.7999H27.4503C25.5601 39.7999 24.141 38.0731 24.5071 36.2188L29.5224 10.8188C29.7999 9.4131 31.0328 8.3999 32.4656 8.3999H146.935C148.83 8.3999 150.25 10.1352 149.876 11.9928L145.784 32.2893Z" fill="black"/>
<path d="M255.156 85.7999C255.156 90.3779 254.588 95.5243 253.451 101.239C253.176 102.621 251.953 103.6 250.545 103.6H176.716C174.925 103.6 173.511 105.17 173.953 106.906C176.377 116.435 184.378 121.2 197.956 121.2C202.756 121.2 207.423 120.467 211.956 119C215.409 117.883 218.591 116.341 221.502 114.373C222.97 113.38 225.006 113.679 225.986 115.156L238.376 133.82C239.261 135.153 238.948 136.952 237.622 137.846C225.412 146.082 210.79 150.2 193.756 150.2C182.29 150.2 172.156 148.2 163.356 144.2C154.69 140.067 147.956 134.333 143.156 127C138.49 119.533 136.156 110.8 136.156 100.8C136.156 88.9332 138.89 78.2666 144.356 68.7999C149.956 59.1999 157.69 51.7332 167.556 46.3999C177.556 40.9332 188.956 38.1999 201.756 38.1999C212.556 38.1999 221.956 40.1999 229.956 44.1999C238.09 48.0666 244.29 53.5999 248.556 60.7999C252.956 67.9999 255.156 76.3332 255.156 85.7999ZM199.956 65.1999C193.823 65.1999 188.69 66.8666 184.556 70.1999C181.397 72.6454 178.901 75.8308 177.066 79.7559C176.202 81.6029 177.649 83.5999 179.688 83.5999H217.225C218.855 83.5999 220.214 82.2931 220.045 80.6722C219.591 76.3238 217.828 72.833 214.756 70.1999C211.023 66.8666 206.09 65.1999 199.956 65.1999Z" fill="black"/>
<path d="M341.495 38.1999C353.362 38.1999 362.829 41.3999 369.895 47.7999C377.095 54.0666 380.695 63.1332 380.695 74.9999C380.695 79.3999 380.229 83.8666 379.295 88.3999L367.778 145.988C367.497 147.391 366.266 148.4 364.836 148.4H332.95C331.058 148.4 329.639 146.671 330.007 144.816L340.495 91.9999C341.029 89.7332 341.295 87.3332 341.295 84.7999C341.295 75.1999 336.295 70.3999 326.295 70.3999C319.629 70.3999 314.162 72.4666 309.895 76.5999C305.629 80.5999 302.629 86.6666 300.895 94.7999L290.58 145.992C290.298 147.393 289.068 148.4 287.639 148.4H255.752C253.86 148.4 252.44 146.669 252.81 144.814L273.214 42.4136C273.494 41.0104 274.726 39.9999 276.157 39.9999H306.493C308.152 39.9999 309.398 41.5144 309.078 43.142V43.142C308.584 45.6559 311.782 47.5125 313.922 46.104C316.855 44.1739 319.979 42.6058 323.295 41.3999C329.162 39.2666 335.229 38.1999 341.495 38.1999Z" fill="black"/>
<path d="M464.154 38.2C472.154 38.2 479.62 40.2 486.554 44.2C493.62 48.0667 499.287 53.7333 503.554 61.2C507.82 68.6667 509.954 77.4 509.954 87.4C509.954 99.2667 507.287 110 501.954 119.6C496.754 129.067 489.62 136.533 480.554 142C471.62 147.467 461.82 150.2 451.154 150.2C438.032 150.2 428.123 146.702 421.427 139.707C419.485 137.678 415.501 138.404 414.964 141.161L414.026 145.974C413.752 147.383 412.517 148.4 411.082 148.4H381.011C379.118 148.4 377.699 146.669 378.069 144.813L406.472 2.41317C406.752 1.01018 407.984 0 409.414 0H441.297C443.189 0 444.609 1.73029 444.239 3.586L436.99 39.9817C436.44 42.744 439.813 44.8622 442.287 43.5155C448.796 39.9718 456.085 38.2 464.154 38.2ZM445.754 119.6C453.354 119.6 459.554 116.8 464.354 111.2C469.154 105.6 471.554 98.3333 471.554 89.4C471.554 83 469.687 77.9333 465.954 74.2C462.354 70.4667 457.354 68.6 450.954 68.6C443.354 68.6 437.154 71.4 432.354 77C427.554 82.6 425.154 89.9333 425.154 99C425.154 105.4 426.954 110.467 430.554 114.2C434.287 117.8 439.354 119.6 445.754 119.6Z" fill="#8000FF"/>
</svg>
