<svg width="247" height="90" viewBox="0 0 247 90" fill="none" xmlns="http://www.w3.org/2000/svg">
<path fill-rule="evenodd" clip-rule="evenodd" d="M0.662109 8.97204H16.5726L29.2767 57.6869L44.4643 8.97204H58.3398L73.2504 57.718L86.536 8.97204H101.432L80.2505 81.772H66.759L51 29.9787L35.241 81.772H22.1525L0.662109 8.97204ZM50.9 26.872H51.1L67.5 80.772H79.5L100.1 9.97204H87.3L73.4 60.972H73.2L57.6 9.97204H45.2L29.3 60.972H29.1L15.8 9.97204H1.99997L22.9 80.772H34.5L50.9 26.872ZM142.917 81.4155C139.118 83.4492 135.367 84.5203 131.663 84.6288C127.674 84.7457 123.803 84.0741 120.049 82.614C116.493 81.2307 113.364 79.3316 110.664 76.9165C107.964 74.5014 105.884 71.7589 104.424 68.689C102.964 65.619 102.132 62.3003 101.927 58.7327C101.814 55.125 102.488 51.4441 103.948 47.69C105.408 43.936 107.386 40.8004 109.881 38.2831C112.468 35.7256 115.337 33.8084 118.487 32.5316C121.638 31.2548 125.024 30.6384 128.647 30.6825C132.269 30.7266 135.858 31.4402 139.415 32.8235C142.708 34.1043 145.474 35.8626 147.713 38.0983C150.044 40.2938 151.741 42.8497 152.806 45.766C153.937 48.7079 154.401 51.9973 154.2 55.6343C154.09 59.2311 153.228 63.1041 151.614 67.2533L150.346 70.5134L114.189 56.4501C114.101 56.7808 114.023 57.1082 113.955 57.4324C113.266 60.746 113.651 63.7226 115.11 66.3624C116.713 69.2604 119.193 71.3626 122.552 72.669C125.516 73.8217 128.216 74.1896 130.653 73.7726C133.182 73.3153 135.562 72.4592 137.794 71.2043L143.792 80.9302C143.5 81.0976 143.208 81.2594 142.917 81.4155ZM130.48 72.7877C132.897 72.35 135.17 71.5321 137.304 70.3326L138.141 69.862L145.186 81.2842L144.29 81.7978C140.075 84.2134 135.872 85.5059 131.692 85.6284C127.568 85.7492 123.564 85.0541 119.687 83.546C116.024 82.1216 112.792 80.1611 109.997 77.6619C107.205 75.1641 105.042 72.3161 103.521 69.1184C102.003 65.9258 101.141 62.4799 100.929 58.79L100.928 58.7771L100.928 58.7641C100.81 55.0071 101.512 51.1924 103.016 47.3276C104.519 43.463 106.567 40.2062 109.171 37.5791L109.178 37.5719C111.852 34.9282 114.831 32.9346 118.112 31.6048C121.393 30.2749 124.912 29.637 128.659 29.6826C132.407 29.7282 136.115 30.4671 139.777 31.8915C143.179 33.2147 146.063 35.041 148.409 37.3804C150.842 39.675 152.624 42.3554 153.742 45.4149C154.928 48.5024 155.405 51.9292 155.199 55.6777C155.083 59.4078 154.19 63.3896 152.546 67.6158L150.916 71.8079L114.901 57.8002C114.299 60.8459 114.681 63.5205 115.985 65.8785C117.464 68.5531 119.753 70.5073 122.915 71.737C125.755 72.8417 128.267 73.1653 130.48 72.7877ZM140.973 47.9683L140.97 47.9609C139.792 45.3964 137.497 43.3868 133.915 41.9934C130.549 40.6843 127.597 40.6406 124.985 41.7381C122.678 42.7551 120.713 44.5056 119.106 47.0535L141.334 55.699C142.208 52.7856 142.057 50.2319 140.977 47.9757L140.973 47.9683ZM117.647 47.559C117.813 47.259 117.983 46.9675 118.157 46.6846C119.872 43.9068 122.016 41.9517 124.59 40.8195C127.492 39.5975 130.721 39.6782 134.277 41.0615C138.031 42.5216 140.565 44.6823 141.878 47.5437C143.096 50.0854 143.226 52.9251 142.269 56.0626C142.173 56.3758 142.067 56.6921 141.949 57.0113L117.647 47.559ZM223.962 39.506C227.67 31.8188 230.595 24.3055 233.323 15.878C233.43 15.5461 233.537 15.2128 233.644 14.878H220.484V67.518C220.484 78.0748 220.616 84.4058 220.659 86.4557L220.659 86.4585C220.667 86.8528 220.672 87.0881 220.672 87.164C220.672 88.104 220.578 88.198 219.638 88.198H212.118C211.084 88.198 210.99 88.104 210.99 87.164C210.99 87.0661 210.996 86.7983 211.005 86.3556C211.05 84.248 211.178 78.177 211.178 67.612V27.004C211.178 16.5014 211.053 10.3753 211.007 8.11571L211.007 8.11212C210.996 7.60319 210.99 7.29112 210.99 7.17003C210.99 6.23003 211.084 6.13603 212.118 6.13603C212.257 6.13603 212.516 6.14747 212.907 6.16469C214.1 6.21732 216.518 6.32403 220.484 6.32403H235.524C236.652 6.32403 237.498 6.23003 237.874 6.04203C238.438 5.85403 238.814 5.76003 239.284 5.76003C240.036 5.76003 240.788 6.13603 243.232 8.58003C245.206 10.836 245.488 11.682 245.488 12.434C245.488 13.186 245.112 13.656 244.642 14.126C243.984 14.596 243.514 15.442 242.668 17.604C239.942 24.842 237.31 31.234 234.114 38.002C243.702 46.65 245.582 52.29 245.582 59.998C245.582 69.774 240.036 74.944 229.038 75.978C227.615 76.1157 226.887 76.1862 226.46 75.8612C226.012 75.5205 225.895 74.7455 225.654 73.158C225.286 71.0231 224.63 69.2917 223.775 67.964C223.539 67.5964 223.287 67.2598 223.022 66.954C223.46 66.9634 223.887 66.9664 224.303 66.9632C232.267 66.9011 236.088 64.517 236.088 59.246C236.088 53.324 233.926 48.718 223.962 39.506ZM224.669 73.3279C224.668 73.3247 224.667 73.3215 224.667 73.3183C224.219 70.7265 223.338 68.8456 222.266 67.609L221.484 66.7063V67.518C221.484 73.811 221.531 78.6002 221.578 81.874C221.609 84.0546 221.641 85.5816 221.658 86.4234C221.667 86.8364 221.672 87.0845 221.672 87.164C221.672 87.3974 221.668 87.6548 221.629 87.8866C221.589 88.1254 221.494 88.4608 221.215 88.7406C220.935 89.0205 220.599 89.1153 220.36 89.1551C220.129 89.1937 219.871 89.198 219.638 89.198H212.118C211.861 89.198 211.592 89.1935 211.355 89.1572C211.117 89.121 210.777 89.0353 210.488 88.7683C210.187 88.4908 210.081 88.1482 210.036 87.8965C209.994 87.6587 209.99 87.3955 209.99 87.164C209.99 87.0624 209.996 86.7821 210.006 86.3221C210.023 85.4763 210.054 84.0229 210.084 81.9559C210.131 78.7412 210.178 73.9991 210.178 67.612V27.004C210.178 20.57 210.131 15.7808 210.084 12.5189C210.055 10.4894 210.025 9.0351 210.007 8.14935C209.997 7.62138 209.99 7.29542 209.99 7.17003C209.99 6.93856 209.994 6.6754 210.036 6.43754C210.081 6.18589 210.187 5.84328 210.488 5.56573C210.777 5.29879 211.117 5.21311 211.355 5.17682C211.592 5.14061 211.861 5.13603 212.118 5.13603C212.272 5.13603 212.567 5.14894 212.995 5.16759C213.403 5.18543 213.932 5.20853 214.573 5.23063C215.925 5.27726 217.864 5.32403 220.484 5.32403H235.524C236.064 5.32403 236.516 5.30134 236.864 5.26038C237.038 5.23994 237.175 5.21619 237.278 5.19199C237.381 5.16779 237.423 5.14912 237.427 5.14768L237.49 5.11583L237.558 5.09335C238.155 4.89413 238.653 4.76003 239.284 4.76003C239.902 4.76003 240.47 4.94018 241.186 5.4266C241.857 5.88325 242.713 6.64683 243.939 7.87293L243.963 7.89647L243.985 7.92153C245.968 10.1886 246.488 11.282 246.488 12.434C246.488 13.6007 245.864 14.3178 245.349 14.8331L245.291 14.8917L245.223 14.9398C244.848 15.2077 244.468 15.7488 243.601 17.9632C240.959 24.9782 238.401 31.2098 235.333 37.7594C239.853 41.9099 242.664 45.4398 244.344 48.9176C246.1 52.5532 246.582 56.0538 246.582 59.998C246.582 65.0817 245.134 69.1088 242.126 71.9886C239.141 74.8467 234.753 76.4448 229.133 76.9735C229.133 76.9735 229.132 76.9736 229.132 76.9736L229.077 76.979C228.398 77.0447 227.802 77.1024 227.325 77.0924C226.831 77.0819 226.263 76.9998 225.789 76.6053C225.329 76.2219 225.129 75.6826 225.003 75.1973C224.878 74.715 224.784 74.0906 224.673 73.3596L224.669 73.3279ZM221.484 65.9211L223.043 65.9543C227.41 66.0472 230.447 65.5014 232.366 64.3858C233.305 63.8397 233.97 63.1606 234.408 62.3441C234.848 61.5221 235.088 60.5055 235.088 59.246C235.088 56.4399 234.584 53.987 232.899 51.1159C231.189 48.2015 228.244 44.8268 223.283 40.2403L222.74 39.738L223.061 39.0716C226.701 31.5254 229.584 24.1449 232.271 15.878H221.484V65.9211ZM199.898 23.15C200.744 23.432 201.308 23.714 201.308 24.372C201.308 25.03 200.932 25.5 200.556 25.876C199.992 26.44 199.616 27.286 199.334 28.038C198.575 30.4822 197.741 32.8508 196.561 35.6858C196.424 36.0127 196.284 36.3459 196.138 36.686C196.512 36.686 196.875 36.6855 197.226 36.6846C202.252 36.6713 204.878 36.5675 206.062 36.5208C206.413 36.5069 206.637 36.498 206.76 36.498C207.7 36.498 207.794 36.592 207.794 37.532V44.3C207.794 45.24 207.7 45.334 206.76 45.334C206.644 45.334 206.43 45.3261 206.088 45.3135C204.766 45.2648 201.546 45.146 194.822 45.146H173.86C167.054 45.146 163.818 45.2651 162.496 45.3137C162.157 45.3262 161.943 45.334 161.828 45.334C160.982 45.334 160.888 45.24 160.888 44.3V37.532C160.888 36.592 160.982 36.498 161.828 36.498C161.943 36.498 162.157 36.5059 162.496 36.5184C163.818 36.567 167.054 36.686 173.86 36.686H187.49C189.182 32.362 190.122 29.166 190.968 25.97C191.277 24.8116 191.459 23.7167 191.618 22.2682C191.653 21.9536 191.686 21.6223 191.72 21.27C192.039 21.3292 192.369 21.3913 192.707 21.4562C195.051 21.9072 197.762 22.4927 199.898 23.15ZM186.805 35.686C188.326 31.7259 189.204 28.7259 190.001 25.7141L190.002 25.7124C190.357 24.3812 190.538 23.1287 190.724 21.1752L190.754 20.86H177.759C177.953 21.1227 178.077 21.4123 178.172 21.6506L178.177 21.661C179.32 24.6146 180.563 28.5305 181.235 32.1809L181.236 32.1831C181.284 32.4481 181.328 32.7438 181.312 33.0238C181.293 33.3452 181.192 33.6965 180.913 33.9961C180.673 34.2527 180.376 34.3864 180.173 34.4675C180.005 34.5341 179.799 34.6022 179.593 34.6702C179.542 34.687 179.491 34.7039 179.44 34.7207L179.421 34.7272L176.093 35.686H186.805ZM194.823 20.8607C196.664 21.246 198.581 21.6987 200.192 22.1943L200.203 22.1977L200.214 22.2013C200.636 22.342 201.134 22.5256 201.526 22.8246C201.982 23.172 202.308 23.6849 202.308 24.372C202.308 25.4494 201.678 26.168 201.263 26.5831C200.87 26.9764 200.558 27.6276 200.28 28.3626C199.55 30.713 198.749 32.9979 197.644 35.6833C200.498 35.6726 202.539 35.6324 203.959 35.5924C204.85 35.5673 205.521 35.5412 205.993 35.5228C206.376 35.5079 206.628 35.498 206.76 35.498C206.993 35.498 207.251 35.5024 207.482 35.541C207.721 35.5808 208.057 35.6756 208.337 35.9554C208.616 36.2353 208.711 36.5707 208.751 36.8095C208.79 37.0412 208.794 37.2987 208.794 37.532V44.3C208.794 44.5334 208.79 44.7908 208.751 45.0226C208.711 45.2614 208.616 45.5968 208.337 45.8766C208.057 46.1565 207.721 46.2513 207.482 46.2911C207.251 46.3297 206.993 46.334 206.76 46.334C206.637 46.334 206.398 46.3254 206.029 46.3119C205.522 46.2935 204.769 46.2661 203.727 46.2397C201.879 46.193 199.044 46.146 194.822 46.146H173.86C169.59 46.146 166.732 46.193 164.873 46.2397C163.82 46.2662 163.063 46.2937 162.555 46.3121C162.187 46.3254 161.951 46.334 161.828 46.334C161.618 46.334 161.371 46.33 161.143 46.2882C160.901 46.2436 160.571 46.1374 160.304 45.8453C160.047 45.5652 159.963 45.2391 159.928 45.0125C159.893 44.787 159.888 44.5353 159.888 44.3V37.532C159.888 37.2967 159.893 37.0451 159.928 36.8195C159.963 36.593 160.047 36.2669 160.304 35.9868C160.571 35.6947 160.901 35.5885 161.143 35.5439C161.371 35.5021 161.618 35.498 161.828 35.498C161.951 35.498 162.187 35.5066 162.555 35.52C163.063 35.5384 163.82 35.5659 164.873 35.5924C166.314 35.6286 168.354 35.6649 171.187 35.6794C171.143 35.5896 171.11 35.5027 171.084 35.4243C170.997 35.1656 170.944 34.8626 170.9 34.5944L170.899 34.5901C170.34 31.1439 169.508 27.4633 168.324 24.4566L168.319 24.4442L168.314 24.4318C168.22 24.1741 168.121 23.8777 168.091 23.5926C168.055 23.26 168.104 22.8435 168.416 22.4834C168.668 22.1926 169.003 22.054 169.206 21.9775C169.388 21.9093 169.614 21.8403 169.843 21.7704C169.893 21.755 169.944 21.7397 169.994 21.7243L170.009 21.7195L173.14 20.8658C170.319 20.8797 168.311 20.9167 166.907 20.9537C165.914 20.9798 165.197 21.007 164.711 21.0254C164.349 21.0392 164.115 21.048 163.99 21.048C163.757 21.048 163.499 21.0437 163.267 21.0051C163.029 20.9653 162.693 20.8705 162.413 20.5907C162.134 20.3108 162.039 19.9754 161.999 19.7366C161.96 19.5048 161.956 19.2474 161.956 19.014V12.434C161.956 12.1774 161.961 11.9085 161.997 11.6709C162.033 11.4328 162.119 11.0932 162.386 10.804C162.663 10.5033 163.006 10.3968 163.257 10.3522C163.495 10.3101 163.758 10.306 163.99 10.306C164.115 10.306 164.349 10.3149 164.711 10.3286C165.197 10.3471 165.914 10.3743 166.907 10.4004C168.683 10.4471 171.424 10.494 175.552 10.494H178.782V9.80203C178.782 6.4227 178.686 4.26064 178.241 2.21246L177.97 0.964966L179.246 1.00042C182.329 1.08606 185.028 1.32633 187.863 1.57872C188.173 1.60636 188.485 1.63415 188.8 1.6619L188.811 1.66293C189.381 1.71986 189.908 1.86766 190.325 2.11436C190.701 2.33654 191.216 2.78893 191.216 3.50403C191.216 4.34279 190.876 5.00371 190.573 5.59497C190.537 5.66472 190.502 5.73352 190.467 5.80151C190.392 5.98707 190.314 6.3079 190.261 6.94757C190.206 7.60851 190.182 8.53693 190.182 9.89604V10.494H193.976C198.057 10.494 200.774 10.4471 202.539 10.4004C203.521 10.3744 204.234 10.3473 204.719 10.3288C205.083 10.315 205.318 10.306 205.444 10.306C205.675 10.306 205.939 10.3101 206.176 10.3522C206.428 10.3968 206.771 10.5033 207.048 10.804C207.315 11.0932 207.401 11.4328 207.437 11.6709C207.473 11.9085 207.478 12.1774 207.478 12.434V19.014C207.478 19.2474 207.474 19.5048 207.435 19.7366C207.395 19.9754 207.3 20.3108 207.021 20.5906C206.741 20.8705 206.405 20.9653 206.166 21.0051C205.935 21.0437 205.677 21.048 205.444 21.048C205.318 21.048 205.083 21.0391 204.719 21.0252C204.234 21.0068 203.521 20.9797 202.539 20.9537C200.899 20.9103 198.438 20.8667 194.823 20.8607ZM189.558 5.38403C189.601 5.29744 189.643 5.21458 189.684 5.13475C189.995 4.5213 190.216 4.08626 190.216 3.50403C190.216 3.12803 189.652 2.75203 188.712 2.65803C188.397 2.63028 188.086 2.60253 187.776 2.57496C185.261 2.35115 182.88 2.13914 180.247 2.03477C179.909 2.02134 179.566 2.00969 179.218 2.00003C179.29 2.33189 179.353 2.66597 179.409 3.006C179.715 4.88119 179.782 6.93747 179.782 9.80203V11.494H175.552C168.993 11.494 165.921 11.3758 164.648 11.3269C164.316 11.3141 164.107 11.306 163.99 11.306C163.05 11.306 162.956 11.4 162.956 12.434V19.014C162.956 19.954 163.05 20.048 163.99 20.048C164.107 20.048 164.316 20.04 164.648 20.0272C165.921 19.9782 168.993 19.86 175.552 19.86H193.976C200.453 19.86 203.51 19.978 204.782 20.027C205.116 20.0399 205.327 20.048 205.444 20.048C206.384 20.048 206.478 19.954 206.478 19.014V12.434C206.478 11.4 206.384 11.306 205.444 11.306C205.327 11.306 205.116 11.3142 204.782 11.327C203.511 11.3761 200.453 11.494 193.976 11.494H189.182V9.89604C189.182 7.17003 189.276 6.04203 189.558 5.38403ZM175.512 88.0301C175.287 88.0654 175.035 88.07 174.8 88.07H167.562C167.327 88.07 167.075 88.0654 166.849 88.0301C166.623 87.9948 166.297 87.9112 166.017 87.6544C165.725 87.3867 165.618 87.057 165.574 86.8147C165.532 86.5875 165.528 86.3403 165.528 86.13C165.528 86.0058 165.535 85.8107 165.546 85.498C165.564 84.9782 165.594 84.1333 165.622 82.7489C165.669 80.4783 165.716 76.6786 165.716 70.244V63.476C165.716 59.8188 165.669 57.3609 165.622 55.7381C165.598 54.9075 165.574 54.2739 165.555 53.8098C165.539 53.3912 165.528 53.1106 165.528 52.948C165.528 52.7147 165.532 52.4573 165.571 52.2255C165.611 51.9867 165.706 51.6513 165.985 51.3714C166.265 51.0916 166.601 50.9968 166.839 50.957C167.071 50.9184 167.329 50.914 167.562 50.914C167.725 50.914 168.001 50.9251 168.412 50.9415C168.867 50.9598 169.488 50.9846 170.305 51.0085C171.904 51.0551 174.339 51.102 177.996 51.102H191.532C195.189 51.102 197.647 51.0551 199.258 51.0085C200.12 50.9835 200.765 50.9573 201.22 50.9389C201.59 50.9239 201.834 50.914 201.966 50.914C202.223 50.914 202.491 50.9186 202.729 50.9548C202.967 50.9911 203.307 51.0768 203.596 51.3437C203.897 51.6213 204.003 51.9639 204.048 52.2155C204.09 52.4534 204.094 52.7166 204.094 52.948C204.094 53.093 204.082 53.3716 204.065 53.783C204.047 54.2197 204.023 54.8061 203.999 55.5413C203.953 57.0114 203.906 59.1628 203.906 62.16V69.962C203.906 76.3966 203.953 80.1963 204 82.4551C204.029 83.8801 204.06 84.7241 204.078 85.2188C204.088 85.4885 204.094 85.6544 204.094 85.754C204.094 86.0089 204.09 86.2831 204.05 86.5263C204.01 86.7759 203.914 87.1241 203.625 87.4129C203.336 87.7017 202.988 87.7979 202.738 87.8383C202.495 87.8777 202.221 87.882 201.966 87.882H194.728C194.496 87.882 194.233 87.878 193.995 87.8359C193.744 87.7913 193.401 87.6847 193.124 87.3841C192.857 87.0949 192.771 86.7553 192.735 86.5171C192.699 86.2795 192.694 86.0107 192.694 85.754V82.43H176.834V86.13C176.834 86.3403 176.83 86.5875 176.788 86.8147C176.744 87.057 176.637 87.3867 176.345 87.6544C176.065 87.9112 175.739 87.9948 175.512 88.0301ZM192.694 61.28H176.834V72.158H192.694V61.28ZM177.244 22.022C178.372 24.936 179.594 28.79 180.252 32.362C180.43 33.3406 180.271 33.3931 179.297 33.7146C179.242 33.7328 179.184 33.7519 179.124 33.772L173.578 35.37C172.168 35.746 172.074 35.558 171.886 34.43C171.322 30.952 170.476 27.192 169.254 24.09C168.896 23.1052 169.049 23.0584 170.12 22.7313L170.288 22.68L175.458 21.27C176.586 20.988 176.868 21.082 177.244 22.022ZM175.834 86.13C175.834 86.976 175.74 87.07 174.8 87.07H167.562C166.622 87.07 166.528 86.976 166.528 86.13C166.528 86.0097 166.534 85.8327 166.545 85.545L166.545 85.5391C166.591 84.2486 166.716 80.7478 166.716 70.244V63.476C166.716 57.8347 166.605 55.0314 166.553 53.7388C166.538 53.3517 166.528 53.0997 166.528 52.948C166.528 52.008 166.622 51.914 167.562 51.914C167.714 51.914 167.96 51.924 168.339 51.9394C169.606 51.9907 172.354 52.102 177.996 52.102H191.532C197.272 52.102 200.074 51.9868 201.291 51.9368C201.628 51.9229 201.844 51.914 201.966 51.914C203 51.914 203.094 52.008 203.094 52.948C203.094 53.0802 203.084 53.3261 203.068 53.7025C203.016 54.9322 202.906 57.5549 202.906 62.16V69.962C202.906 80.6102 203.035 84.0606 203.079 85.255C203.088 85.5046 203.094 85.6565 203.094 85.754C203.094 86.788 203 86.882 201.966 86.882H194.728C193.788 86.882 193.694 86.788 193.694 85.754V81.43H175.834V86.13ZM175.834 60.28V73.158H193.694V60.28H175.834Z" fill="black"/>
<path d="M50.9 26.872H51.1L67.5 80.772H79.5L100.1 9.97204H87.3L73.4 60.972H73.2L57.6 9.97204H45.2L29.3 60.972H29.1L15.8 9.97204H1.99997L22.9 80.772H34.5L50.9 26.872Z" fill="black"/>
<path fill-rule="evenodd" clip-rule="evenodd" d="M131.663 84.6288C135.367 84.5203 139.118 83.4492 142.917 81.4155C143.208 81.2594 143.5 81.0976 143.792 80.9302L137.794 71.2043C135.562 72.4592 133.182 73.3153 130.653 73.7726C128.216 74.1896 125.516 73.8217 122.552 72.669C119.193 71.3626 116.713 69.2604 115.11 66.3624C113.651 63.7226 113.266 60.746 113.955 57.4324C114.023 57.1082 114.101 56.7808 114.189 56.4501L150.346 70.5134L151.614 67.2533C153.228 63.1041 154.09 59.2311 154.2 55.6343C154.401 51.9973 153.937 48.7079 152.806 45.766C151.741 42.8497 150.044 40.2938 147.713 38.0983C145.474 35.8626 142.708 34.1043 139.415 32.8235C135.858 31.4402 132.269 30.7266 128.647 30.6825C125.024 30.6384 121.638 31.2548 118.487 32.5316C115.337 33.8084 112.468 35.7256 109.881 38.2831C107.386 40.8004 105.408 43.936 103.948 47.69C102.488 51.4441 101.814 55.125 101.927 58.7327C102.132 62.3003 102.964 65.619 104.424 68.689C105.884 71.7589 107.964 74.5014 110.664 76.9165C113.364 79.3316 116.493 81.2307 120.049 82.614C123.803 84.0741 127.674 84.7457 131.663 84.6288ZM118.157 46.6846C117.983 46.9675 117.813 47.259 117.647 47.559L141.949 57.0113C142.067 56.6921 142.173 56.3758 142.269 56.0626C143.226 52.9251 143.096 50.0854 141.878 47.5437C140.565 44.6823 138.031 42.5216 134.277 41.0615C130.721 39.6782 127.492 39.5975 124.59 40.8195C122.016 41.9517 119.872 43.9068 118.157 46.6846Z" fill="black"/>
<path fill-rule="evenodd" clip-rule="evenodd" d="M174.8 87.07C175.74 87.07 175.834 86.976 175.834 86.13V81.43H193.694V85.754C193.694 86.788 193.788 86.882 194.728 86.882H201.966C203 86.882 203.094 86.788 203.094 85.754C203.094 85.6565 203.088 85.5046 203.079 85.255C203.035 84.0606 202.906 80.6102 202.906 69.962V62.16C202.906 57.5549 203.016 54.9322 203.068 53.7025C203.084 53.3261 203.094 53.0802 203.094 52.948C203.094 52.008 203 51.914 201.966 51.914C201.844 51.914 201.628 51.9229 201.291 51.9368C200.074 51.9868 197.272 52.102 191.532 52.102H177.996C172.354 52.102 169.606 51.9907 168.339 51.9394C167.96 51.924 167.714 51.914 167.562 51.914C166.622 51.914 166.528 52.008 166.528 52.948C166.528 53.0997 166.538 53.3517 166.553 53.7388C166.605 55.0314 166.716 57.8347 166.716 63.476V70.244C166.716 80.7478 166.591 84.2486 166.545 85.5391L166.545 85.545C166.534 85.8327 166.528 86.0097 166.528 86.13C166.528 86.976 166.622 87.07 167.562 87.07H174.8ZM193.694 60.28H175.834V73.158H193.694V60.28Z" fill="black"/>
<path d="M201.308 24.372C201.308 23.714 200.744 23.432 199.898 23.15C197.762 22.4927 195.051 21.9072 192.707 21.4562C192.369 21.3913 192.039 21.3292 191.72 21.27C191.686 21.6223 191.653 21.9536 191.618 22.2682C191.459 23.7167 191.277 24.8116 190.968 25.97C190.122 29.166 189.182 32.362 187.49 36.686H173.86C167.054 36.686 163.818 36.567 162.496 36.5184C162.157 36.5059 161.943 36.498 161.828 36.498C160.982 36.498 160.888 36.592 160.888 37.532V44.3C160.888 45.24 160.982 45.334 161.828 45.334C161.943 45.334 162.157 45.3262 162.496 45.3137C163.818 45.2651 167.054 45.146 173.86 45.146H194.822C201.546 45.146 204.766 45.2648 206.088 45.3135C206.43 45.3261 206.644 45.334 206.76 45.334C207.7 45.334 207.794 45.24 207.794 44.3V37.532C207.794 36.592 207.7 36.498 206.76 36.498C206.637 36.498 206.413 36.5069 206.062 36.5208C204.878 36.5675 202.252 36.6713 197.226 36.6846C196.875 36.6855 196.512 36.686 196.138 36.686C196.284 36.3459 196.424 36.0127 196.561 35.6858C197.741 32.8508 198.575 30.4822 199.334 28.038C199.616 27.286 199.992 26.44 200.556 25.876C200.932 25.5 201.308 25.03 201.308 24.372Z" fill="black"/>
<path d="M180.252 32.362C179.594 28.79 178.372 24.936 177.244 22.022C176.868 21.082 176.586 20.988 175.458 21.27L170.288 22.68L170.12 22.7313C169.049 23.0584 168.896 23.1052 169.254 24.09C170.476 27.192 171.322 30.952 171.886 34.43C172.074 35.558 172.168 35.746 173.578 35.37L179.124 33.772C179.184 33.7519 179.242 33.7328 179.297 33.7146C180.271 33.3931 180.43 33.3406 180.252 32.362Z" fill="black"/>
<path d="M189.558 5.38403C189.601 5.29744 189.643 5.21458 189.684 5.13475C189.995 4.5213 190.216 4.08626 190.216 3.50403C190.216 3.12803 189.652 2.75203 188.712 2.65803C188.397 2.63028 188.086 2.60253 187.776 2.57496C185.261 2.35115 182.88 2.13914 180.247 2.03477C179.909 2.02134 179.566 2.00969 179.218 2.00003C179.29 2.33189 179.353 2.66597 179.409 3.006C179.715 4.88119 179.782 6.93747 179.782 9.80203V11.494H175.552C168.993 11.494 165.921 11.3758 164.648 11.3269C164.316 11.3141 164.107 11.306 163.99 11.306C163.05 11.306 162.956 11.4 162.956 12.434V19.014C162.956 19.954 163.05 20.048 163.99 20.048C164.107 20.048 164.316 20.04 164.648 20.0272C165.921 19.9782 168.993 19.86 175.552 19.86H193.976C200.453 19.86 203.51 19.978 204.782 20.027C205.116 20.0399 205.327 20.048 205.444 20.048C206.384 20.048 206.478 19.954 206.478 19.014V12.434C206.478 11.4 206.384 11.306 205.444 11.306C205.327 11.306 205.116 11.3142 204.782 11.327C203.511 11.3761 200.453 11.494 193.976 11.494H189.182V9.89604C189.182 7.17003 189.276 6.04203 189.558 5.38403Z" fill="black"/>
<path d="M233.323 15.878C230.595 24.3055 227.67 31.8188 223.962 39.506C233.926 48.718 236.088 53.324 236.088 59.246C236.088 64.517 232.267 66.9011 224.303 66.9632C223.887 66.9664 223.46 66.9634 223.022 66.954C223.287 67.2598 223.539 67.5964 223.775 67.964C224.63 69.2917 225.286 71.0231 225.654 73.158C225.895 74.7455 226.012 75.5205 226.46 75.8612C226.887 76.1862 227.615 76.1157 229.038 75.978C240.036 74.944 245.582 69.774 245.582 59.998C245.582 52.29 243.702 46.65 234.114 38.002C237.31 31.234 239.942 24.842 242.668 17.604C243.514 15.442 243.984 14.596 244.642 14.126C245.112 13.656 245.488 13.186 245.488 12.434C245.488 11.682 245.206 10.836 243.232 8.58003C240.788 6.13603 240.036 5.76003 239.284 5.76003C238.814 5.76003 238.438 5.85403 237.874 6.04203C237.498 6.23003 236.652 6.32403 235.524 6.32403H220.484C216.518 6.32403 214.1 6.21732 212.907 6.16469C212.516 6.14747 212.257 6.13603 212.118 6.13603C211.084 6.13603 210.99 6.23003 210.99 7.17003C210.99 7.29112 210.996 7.60319 211.007 8.11212L211.007 8.11571C211.053 10.3753 211.178 16.5014 211.178 27.004V67.612C211.178 78.177 211.05 84.248 211.005 86.3556C210.996 86.7983 210.99 87.0661 210.99 87.164C210.99 88.104 211.084 88.198 212.118 88.198H219.638C220.578 88.198 220.672 88.104 220.672 87.164C220.672 87.0881 220.667 86.8528 220.659 86.4585L220.659 86.4557C220.616 84.4058 220.484 78.0748 220.484 67.518V14.878H233.644C233.537 15.2128 233.43 15.5461 233.323 15.878Z" fill="black"/>
</svg>
